<?xml version="1.0" encoding="UTF-8"?>
<svg id="Interieur_planete" data-name="Interieur planete" xmlns="http://www.w3.org/2000/svg" viewBox="0 0 320 320">
  <polygon points="93.28 104.15 117.33 104.02 139.08 103.9 176.26 155.4 152.75 194.98 93.28 104.15" style="stroke-width: 0px;"/>
  <polygon points="177.42 152.56 210.77 94.96 193.26 64.11 185.88 64.11 154.82 121.58 177.42 152.56" style="stroke-width: 0px;"/>
  <path d="M196.24,64.11h42.08c20.76,2.53,37.07,18.39,39.75,37.94,2.3,16.78-5.77,33.77-20.6,43.36,17.33,9.18,27.27,28.09,24.93,47.34-.81,6.66-3.03,12.93-6.38,18.47-8.41,13.93-23.92,22-40.19,22h-41.24l17.35-29.27h17.21c5.34,0,10.62-1.78,14.53-5.42,3.64-3.38,6.05-7.97,6.57-13.01.51-5.01-.91-9.93-3.73-13.94-3.7-5.26-9.81-8.31-16.23-8.72l-18.7-1.19-36.36,67.98-19.5-29.96,38.87-65.84,30.17.32c4.59.05,9.17-1.21,12.85-3.95,4.22-3.15,7.15-7.78,7.94-12.99.6-3.93-.07-7.88-1.74-11.4-3.34-7.03-10.66-11.31-18.44-11.46l-12.23-.17-16.89-30.08Z" style="stroke-width: 0px;"/>
  <path d="M173.06,231.34c-14.82,13.77-35.62,24.55-56.1,24.55-5.04,0-9.97-.47-14.76-1.35-21.72-4.03-40.44-16.77-52.12-34.3-8.09-12.14-12.81-26.58-12.81-42,0-32.75,21.26-62.13,52.91-73.14l15.34,23.36c-20.59,4.8-35.93,23.27-35.93,45.32,0,6.08,1.17,11.89,3.29,17.21,6.84,17.18,23.63,29.32,43.24,29.32,1.26,0,2.52-.05,3.76-.15,13.76-1.1,25.82-8.18,33.61-18.64l19.58,29.83Z" style="stroke-width: 0px;"/>
  <path d="M90.69,199.29c-1.86,0-3.2-1.07-3.5-2.79v-.02c-.63-3.79,1.74-6.61,3.83-9.1.95-1.14,1.86-2.21,2.46-3.31.12-.29.25-.56.37-.8.28-.56.39-.82.37-1.06-.12-.44-.3-.85-.51-1.31l-.03-.08c-1.1-2.5-1.78-5.16-2.04-7.9-1.29-13.99,9.03-26.43,23.02-27.72.79-.07,1.59-.11,2.38-.11,3.92,0,7.84.93,11.34,2.68.1.05.21.1.31.16.38.19.73.37,1.11.52.45.1.91.15,1.37.15,2.59,0,5.24-1.56,7.8-3.07.75-.44,1.52-.9,2.28-1.3l.07-.04.07-.03c.19-.08.43-.21.68-.33.92-.47,2.07-1.06,3.34-1.06,1.14,0,2.13.47,2.88,1.35l.03.03c1.81,2.24.31,4.53-.41,5.64-.13.19-.24.37-.34.53l-.05.08-.05.07c-.85,1.18-1.84,2.27-2.81,3.32-2.15,2.34-4.02,4.36-4.05,7.02.09.33.21.67.33,1.02.04.13.09.25.13.38.67,1.93,1.11,3.96,1.3,6.02.63,6.78-1.42,13.39-5.77,18.63-4.35,5.24-10.48,8.46-17.25,9.09-.79.07-1.59.11-2.38.11-3.29,0-6.5-.63-9.55-1.86-.13-.05-.25-.1-.38-.16-.36-.15-.7-.29-1.04-.4-.26-.03-.53-.04-.8-.04-2.8,0-5.55,1.65-8.21,3.24-.84.5-1.71,1.02-2.57,1.48l-.07.04-.07.03c-1.38.61-2.59.91-3.6.91Z" style="fill: #fff; stroke-width: 0px;"/>
  <path d="M140.4,168.41c1.2,12.92-8.31,24.36-21.22,25.55-3.87.36-7.62-.25-10.99-1.62-.56-.23-1.11-.48-1.74-.67-4.86-.66-9,2.76-12.95,4.88-1.38.61-4.01,1.49-4.34-.4-.73-4.4,4.1-7.39,6.13-11.25.39-.99,1.1-1.86.89-3.1-.17-.66-.42-1.23-.67-1.79-.99-2.25-1.64-4.7-1.88-7.28-1.2-12.92,8.31-24.36,21.22-25.55,4.52-.42,8.86.47,12.64,2.36.55.27,1.09.56,1.7.8,4.76,1.18,9.06-2.25,13.01-4.37,1.38-.61,3.32-2.06,4.57-.58,1.08,1.33-.23,2.73-.91,3.91-2.68,3.75-7.35,6.74-7.23,11.74.15.64.37,1.21.57,1.8.61,1.76,1.02,3.62,1.2,5.56Z" style="stroke-width: 0px;"/>
  <g>
    <path d="M181.35,244.4c-1.29,3.24-2.54,6.38-3.79,9.53q-.45,1.13-1.67,1.13c-1.18,0-2.36,0-3.59,0,.07-.21.11-.36.17-.5,1.86-4.68,3.72-9.36,5.56-14.04.13-.34.31-.44.66-.44,1.31.02,2.63.02,3.94,0,.34,0,.5.11.65.4,1.64,3.24,3.29,6.47,4.94,9.71.07.14.15.28.27.51.09-.21.16-.36.22-.5,1.28-3.22,2.57-6.45,3.84-9.67.13-.33.29-.45.66-.45,1.42.03,2.85.01,4.35.01-.06.18-.11.32-.16.46-1.86,4.7-3.73,9.39-5.58,14.09-.12.31-.26.44-.61.44-1.33-.02-2.66-.02-3.99,0-.33,0-.48-.12-.61-.39-1.65-3.25-3.31-6.5-4.96-9.75-.08-.15-.16-.31-.29-.53Z" style="stroke-width: 0px;"/>
    <path d="M265.21,246.06c.24,0,.41,0,.58,0,3.41,0,6.82,0,10.23,0,.34,0,.55.08.74.38.51.8,1.06,1.56,1.57,2.36.1.15.05.4.07.6,0,.01-.01.03-.02.04-.34.86-.51,1.86-1.07,2.55-.55.7-1.47,1.1-2.24,1.62-.71.49-1.38,1.15-2.17,1.39-.79.24-1.71.07-2.58.07-4.29,0-8.58,0-12.87,0h-.64c.24-.18.36-.27.48-.35,1.14-.77,2.29-1.53,3.41-2.32.35-.24.69-.34,1.11-.33,3.39.01,6.79,0,10.18.02.38,0,.57-.1.69-.47.29-.83.63-1.64.99-2.55-.24,0-.42,0-.6,0-3.41,0-6.82,0-10.23,0-.34,0-.55-.09-.74-.38-.5-.78-1.05-1.53-1.54-2.32-.1-.17-.14-.46-.07-.64.31-.87.51-1.85,1.06-2.55.54-.69,1.44-1.08,2.19-1.6.33-.23.69-.42.99-.68.77-.67,1.64-.82,2.65-.81,4.66.04,9.32.02,13.98.02h.63c-.17.14-.27.23-.38.3-1.2.82-2.4,1.64-3.62,2.44-.21.14-.5.22-.75.22-3.46.01-6.92.02-10.37,0-.36,0-.53.09-.66.44-.3.84-.65,1.66-1.01,2.56Z" style="stroke-width: 0px;"/>
    <path d="M200.18,252.07c.26,0,.45,0,.64,0,2.85,0,5.7,0,8.55,0,.34,0,.56.1.74.39.56.85,1.14,1.69,1.76,2.59h-17.72c1.98-4.99,3.95-9.95,5.92-14.92h17.65c-.15.13-.25.21-.35.28-1.22.83-2.43,1.66-3.66,2.47-.2.13-.47.2-.71.2-2.95.01-5.89.01-8.84,0-.32,0-.47.09-.59.4-.31.85-.65,1.69-1.01,2.6h9.68c-.39.98-.75,1.9-1.14,2.81-.05.12-.34.18-.52.18-2.77.01-5.54,0-8.31,0q-.91,0-1.24.85c-.27.69-.54,1.39-.84,2.16Z" style="stroke-width: 0px;"/>
    <path d="M245.71,240.1c-1.59,4.01-3.14,7.94-4.73,11.94.2.01.35.03.5.03,2.9,0,5.8,0,8.69.01.37,0,.53-.12.66-.45,1.45-3.69,2.91-7.37,4.36-11.06.14-.35.29-.48.69-.47,1.42.03,2.85.01,4.34.01-.07.19-.12.34-.18.48-1.46,3.7-2.93,7.4-4.4,11.1-.09.22-.26.45-.45.59-1.26.88-2.53,1.74-3.82,2.58-.2.13-.47.22-.71.22-4.04.01-8.07,0-12.11.02-.29,0-.47-.07-.63-.32-.52-.81-1.08-1.59-1.6-2.4-.1-.17-.14-.46-.06-.64,1.47-3.75,2.95-7.5,4.45-11.24.06-.15.26-.36.4-.36,1.5-.03,3.01-.02,4.59-.02Z" style="stroke-width: 0px;"/>
    <path d="M213.95,254.96c3.31-2.45,6.63-4.91,9.98-7.39-1.38-2.48-2.74-4.93-4.14-7.44.2-.01.33-.03.46-.03,1.35,0,2.69.02,4.03-.01.44-.01.65.15.84.51.69,1.3,1.42,2.58,2.14,3.86.08.14.16.27.27.45.91-.67,1.79-1.32,2.67-1.97,1.17-.87,2.34-1.74,3.52-2.59.15-.11.33-.23.5-.23,1.57-.02,3.14-.01,4.75.07-3.31,2.45-6.61,4.9-9.97,7.39,1.37,2.47,2.74,4.94,4.15,7.45-.18.02-.3.04-.42.04-1.41,0-2.82,0-4.23,0-.29,0-.46-.09-.6-.35-.81-1.49-1.64-2.96-2.49-4.48-.15.1-.28.18-.41.27-1.94,1.44-3.88,2.88-5.84,4.3-.2.15-.49.24-.74.24-1.48.02-2.97.01-4.45.01-.01-.04-.02-.07-.03-.11Z" style="stroke-width: 0px;"/>
  </g>
  <circle cx="117.24" cy="170.06" r="17.9" style="fill: none; stroke: #fff; stroke-miterlimit: 10; stroke-width: 4px;"/>
  <circle cx="117.15" cy="170.24" r="7.09" style="fill: #fff; stroke-width: 0px;"/>
</svg>